<?xml version="1.0" encoding="utf-8"?>
<!-- Generator: Adobe Illustrator 24.0.0, SVG Export Plug-In . SVG Version: 6.00 Build 0)  -->
<svg version="1.1" id="Layer_1" xmlns="http://www.w3.org/2000/svg" xmlns:xlink="http://www.w3.org/1999/xlink" x="0px" y="0px"
	 viewBox="0 0 1366 768" style="enable-background:new 0 0 1366 768;" xml:space="preserve">
<style type="text/css">
	.st0{opacity:0.1;fill:#02C26A;enable-background:new    ;}
	.st1{fill:url(#SVGID_1_);}
	.st2{fill:#FFFFFF;}
	.st3{opacity:0.1;enable-background:new    ;}
	.st4{fill:#02C26A;}
	.st5{fill:#3F3D56;}
	.st6{opacity:0.1;}
	.st7{fill:#FBBEBE;}
	.st8{fill:url(#SVGID_2_);}
	.st9{fill:#CF6F80;}
	.st10{fill:#512E4E;}
</style>
<rect x="1114.52" y="181.06" class="st0" width="28.44" height="28.44"/>
<rect x="1114.52" y="251.21" class="st0" width="28.44" height="28.44"/>
<rect x="1114.52" y="321.35" class="st0" width="28.44" height="28.44"/>
<rect x="1114.52" y="391.5" class="st0" width="28.44" height="28.44"/>
<rect x="1114.52" y="461.65" class="st0" width="28.44" height="28.44"/>
<polygon class="st0" points="1114.52,550.13 1114.52,531.79 1142.95,531.79 1142.95,547.52 "/>
<path class="st0" d="M1155.55,661.03c53.81,0,97.44,7.01,97.44,15.65s-300.63,15.65-354.44,15.65s159.56-7.01,159.56-15.65
	S1101.74,661.03,1155.55,661.03z"/>
<ellipse class="st0" cx="836.09" cy="661.03" rx="97.44" ry="15.65"/>
<linearGradient id="SVGID_1_" gradientUnits="userSpaceOnUse" x1="877.6082" y1="86.4176" x2="877.6082" y2="664.1199" gradientTransform="matrix(1 0 0 -1 -15.95 751.44)">
	<stop  offset="0" style="stop-color:#808080;stop-opacity:0.25"/>
	<stop  offset="0.54" style="stop-color:#808080;stop-opacity:0.12"/>
	<stop  offset="1" style="stop-color:#808080;stop-opacity:0.1"/>
</linearGradient>
<path class="st1" d="M948.27,247.21c-0.02-0.1-0.08-0.19-0.15-0.26c-1.49-1.47-20.49-28.34-20.49-28.34s-1-3-2.62-6.9
	c0.52-0.67,0.91-1.44,1.15-2.25c0.09-0.35,0.15-0.7,0.19-1.05c0-0.11,0.08-0.2,0.11-0.31c0.35-1.36,0.31-2.78-0.1-4.12
	c-0.11,0.34-0.25,0.68-0.41,1c-0.38-1.16-0.88-2.28-1.5-3.34c-2.52-4.34-6.12-8-8.77-12.23c-4.01-6.57-5.61-14.34-4.51-21.96
	c0,0.39,0,0.79,0,1.18c0.1-1.51,0.3-3.01,0.6-4.5c0.42-1.69,0.98-3.34,1.67-4.94c2.38-5.45,6.23-10.2,8.57-15.67
	c0.79-1.85,1.38-3.76,1.78-5.73c0.82-3.28,1.12-6.67,0.89-10.05c0,0.8-0.13,1.6-0.25,2.39c-0.25-8.12-3.53-15.85-9.19-21.67
	c-8.17-8.21-19.9-11.4-31.12-13.08c-4.71-0.55-9.22-2.27-13.1-5c-4.31-2.79-9.88-3.46-14.92-2.85c-5.79,0.63-11.18,3.29-15.19,7.51
	c-5.33,5.86-7.64,14.16-13.86,19.1c-3.77,3-8.55,4.4-12.94,6.44s-8.54,5-9.95,9.38c0,0,0-0.06,0-0.09v0.25l-0.06,0.16
	c-1.46,5.18,1.36,10.45,2.83,15.62c1.53,5.35,1.63,11,1.71,16.53c0.11,6.76,0.21,13.53,0.1,20.3c-0.05,2.66-0.14,5.35-0.34,8
	c-2.37,0.72-4.67,1.64-6.87,2.76c-2.24,1.46-10.62,10.51-10.62,10.51l-16.39,62.62l0.22,0.25l-0.22,0.85l0.83-0.19
	c2.32,2.5,9.25,9.62,16.73,14.06l0.7,12.28c0,0,0.84,12.32,12.17,17.41c0.26,4.27,1.07,21.61-2.68,28.48
	c-2.6,5.02-3.82,10.64-3.54,16.28c0,0,1.31,10.42-0.18,15.9c-0.87,3.66-0.94,7.47-0.19,11.16l0,0c0,0,0,1.21,0,3.29
	c0,11.09,0.13,46.63,0,50.65c-0.19,4.75,0,75,0,75s-0.93,35.11-3.91,44.62c-2.98,9.51-2.23,41-2.23,41s-1.87,37.51,4.74,44.91
	c0,0.33-0.06,0.67-0.07,1c0,0.15,0,0.32,0,0.47c-0.08,2.85,0.47,5.88,2.92,6.81c5,1.92,11.61,7.68,12.86,9.33s8.52,5.76,18,4.66
	c5.94-0.67,11.92-0.94,17.89-0.82l0,0c0,0,3.74-0.68,2.53-5.33l0,0l0,0c-0.78-2.9-3.7-7.36-5.78-10.29c0.38,0.1,0.75,0.18,1.1,0.25
	l0.36,0.07h0.28c0.15,0.01,0.31,0.01,0.46,0h0.2c0.19,0.02,0.37,0.02,0.56,0l0,0c2.51-0.24,11.87,4.12,13.54,7
	c1.67,2.88,7.56,5.07,12,5.62c2.64,0.32,9.3-0.22,14.89-0.94c2.82-0.29,5.6-0.8,8.34-1.52c1.32-0.5,1.6-2.1,1.22-3.9l0,0
	c-0.45-2.29-1.67-4.35-3.46-5.84c-1.62-1.15-3.76-4.18-5.34-6.66l-0.42-0.67c2.79-2.66,7.83-11.36,9.36-13.16
	c1.86-2.19-3-82.28-3-82.28v-40.15l7.45-38l5.21-20.11l4.47-30.36c0,0,7.82-35.46,5.41-38.94l0,0c0-0.07-2-36.58-4.1-45.35
	c-0.91-3.91-0.68-12.71-0.14-21.27c1.15-1.14,1.54-2.85,1-4.38c-0.15-0.51-0.34-1.01-0.58-1.49c0-0.15,0-0.31,0-0.46
	c4.32-1.99,8.83-3.52,13.47-4.58c7.45-1.46,5.59-5.3,5.59-5.3s1.68-3.29,2.79-5.3s0.19-19.75,0-21.21
	c-0.07-0.59-0.53-3.85-1.06-7.55c2.39-1.7,5.5-3.81,8.89-5.81C950.25,252.29,948.8,248.26,948.27,247.21z M851.07,500.74
	c0,0-5.59,14.26-3.35,17.91s-0.37,17.2-0.37,17.2l-1.87,20.11c0,0-5.21,37.3-3.35,46.07c1.46,6.88,2,27.43,2.17,36l0,0
	c-0.13,0.05-0.25,0.11-0.37,0.18l-0.25,0.13c0.86-3.37,0.5-10.19-3.77-23.91l-0.36-56.67c0,0-0.66-65.46,4.51-72.78
	c5.17-7.32,7-19.75,7-19.75s-1.12,17.93-1.85,22.68C848.48,492.66,851.07,500.74,851.07,500.74z M840.66,641.6
	c-0.05,0.12-0.11,0.24-0.15,0.35l-0.28-0.36C840.38,641.6,840.52,641.61,840.66,641.6z"/>
<path class="st2" d="M897.67,664.06c-2.89,1.11-18.56,3-22.94,2.47s-10.18-2.75-11.83-5.65c-1.65-2.9-10.9-7.28-13.38-7
	c-1.02,0.03-2.03-0.11-3-0.42c-1.71-0.52-3.38-1.16-5-1.92c-0.23-1.26-0.19-2.55,0.11-3.8c0.06-0.25,0.13-0.5,0.22-0.74
	c0.58-1.64,1.79-2.98,3.36-3.74l0.36-0.17c0.69-0.3,1.42-0.52,2.16-0.66c7.86-1.51,40.29,1.52,40.29,1.52s0.91,1.63,2.16,3.65
	c1.56,2.5,3.68,5.55,5.28,6.7c1.77,1.52,2.98,3.59,3.41,5.88C899.25,661.95,898.97,663.57,897.67,664.06z"/>
<path class="st3" d="M897.67,664.06c-2.89,1.11-18.55,3-22.93,2.47s-10.18-2.76-11.84-5.65c-1.66-2.89-10.89-7.28-13.37-7
	s-8-2.34-8-2.34s-0.86-4,1.64-6.73l5,3.55c0,0,13.38,4.15,15.86,8s7,6,13.53,6.39c4.88,0.32,16.09-1.58,21.34-2.53
	C899.25,661.95,898.98,663.57,897.67,664.06z"/>
<path class="st2" d="M849.8,669.16c-5.9-0.11-11.8,0.16-17.66,0.83c-9.39,1.1-16.56-3-17.81-4.69s-7.72-7.4-12.69-9.4
	c-2.43-0.94-3-4-2.89-6.86c0-0.15,0-0.32,0-0.47c0.09-1.81,0.36-3.61,0.8-5.37l38.91-0.83l3.37,4.57l0.52,0.7l2.05,2.79
	c0,0,0.93,1.22,2.15,3c2.06,3,4.94,7.43,5.71,10.36l0,0C853.49,668.48,849.8,669.16,849.8,669.16z"/>
<path class="st3" d="M849.8,669.16c-5.9-0.11-11.8,0.16-17.66,0.83c-9.38,1.1-16.56-3-17.8-4.69s-7.73-7.45-12.7-9.38
	c-2.43-0.94-3-4-2.89-6.86c2.78,0.65,8.62,2.31,10.91,5.2c3,3.86,8.37,10.35,16,10.76c6.16,0.33,21.16-0.77,26.66-1.21
	C853.5,668.48,849.8,669.16,849.8,669.16z"/>
<path class="st3" d="M845.17,643.22c-0.45,3.34-1.84,4.24-2.84,4.44c-0.24,0.05-0.5,0.05-0.74,0c-0.13-0.01-0.26-0.03-0.39-0.06
	c0,0-34.94,7.72-42,1.47c-0.18-0.16-0.35-0.33-0.5-0.52c0.09-1.81,0.36-3.61,0.8-5.37l38.91-0.83l3.37,4.57
	c0.58-1.64,1.79-2.98,3.36-3.74L845.17,643.22z"/>
<path class="st3" d="M890.17,647.56c-0.78,0.86-1.43,1.35-1.84,1.18c-1.84-0.74-16.92-3.31-21.71-1.1s-21,0.36-21,0.36
	s0-1.92-0.09-5c0.69-0.3,1.42-0.52,2.16-0.66c7.86-1.51,40.29,1.52,40.29,1.52S888.93,645.54,890.17,647.56z"/>
<path class="st4" d="M912.99,421.36l-4.42,30.54l-5.14,20.24l-7.36,38.26v40.5c0,0,4.78,80.58,2.94,82.78s-8.83,14.73-10.67,14
	s-16.92-3.31-21.71-1.11s-21,0.37-21,0.37s-0.37-31.27-2.21-40.1c-1.84-8.83,3.31-46.36,3.31-46.36l1.84-20.23
	c0,0,2.58-13.62,0.37-17.3c-2.21-3.68,3.31-18,3.31-18s-2.57-8.11-1.83-12.89c0.74-4.78,1.83-22.81,1.83-22.81
	s-1.83,12.52-6.94,19.87c-5.11,7.35-4.46,73.22-4.46,73.22l0.36,57c9.21,30.18,0,27.23,0,27.23s-34.94,7.73-42,1.47
	s-5.04-45.66-5.04-45.66s-0.73-31.64,2.21-41.2s3.87-44.89,3.87-44.89s-0.19-70.65,0-75.42c0.14-4,0-39.81,0-51
	c0-2.08,0-3.31,0-3.31l4.22-10.48l50-6.26h23.92c0,0,36,8.46,39.72,12.11c0.08,0.06,0.15,0.14,0.2,0.22
	C920.72,385.68,912.99,421.36,912.99,421.36z"/>
<path class="st3" d="M852.28,581.78c0,0,11,26.49,16.19,28.33S852.28,581.78,852.28,581.78z"/>
<path class="st3" d="M856.35,620.78c0,0,37.14,1.84,36.77,5.89S856.35,620.78,856.35,620.78z"/>
<path class="st3" d="M806.66,610.19c1.47,1.39,28.33,4,26.12,6.54c-2.21,2.54-23.91,7.48-23.91,7.48L806.66,610.19z"/>
<path class="st3" d="M802.25,564.49c0,1.1,5.52,35.32,7,36.79c1.48,1.47,13.61,2.94,13.61,2.94L802.25,564.49z"/>
<path class="st5" d="M842.3,96.75c-5.27,5.89-7.55,14.24-13.69,19.22c-3.73,3-8.45,4.43-12.79,6.47c-4.34,2.04-8.64,5.15-9.93,9.77
	c-1.44,5.2,1.34,10.51,2.8,15.71c1.51,5.38,1.6,11,1.69,16.63c0.1,6.81,0.21,13.62,0.09,20.43c-0.18,10.61-1.06,21.71-6.69,30.7
	c20.33,6.47,41.95,7.35,63.27,8.18c4.1,0.29,8.21,0.19,12.29-0.31c3.53-0.7,7.03-1.59,10.47-2.65c6.81-1.8,13.82-2.7,20.86-2.67
	c3.07,0,6.2,0.19,9.16-0.61s5.81-2.85,6.61-5.81c0.71-2.66-0.33-5.49-1.69-7.88c-2.48-4.36-6-8-8.66-12.3
	c-5.51-9.21-6.31-20.49-2.17-30.39c2.36-5.49,6.16-10.27,8.48-15.77c4.85-12.06,2.24-25.84-6.7-35.28
	c-8.07-8.26-19.65-11.46-30.73-13.16c-4.67-0.55-9.12-2.27-12.94-5c-4.25-2.8-9.76-3.48-14.74-2.86
	C851.55,89.81,846.23,92.5,842.3,96.75z"/>
<g class="st6">
	<path d="M914.23,155.47c-2.04,4.82-2.91,10.05-2.55,15.27c0.22-3.73,1.09-7.4,2.55-10.84c2.35-5.49,6.15-10.27,8.47-15.77
		c1.9-4.59,2.69-9.56,2.33-14.52c-0.21,3.47-0.99,6.89-2.33,10.1C920.38,145.21,916.58,149.98,914.23,155.47z"/>
	<path d="M810.68,163.19c0.06,3.92,0.12,7.85,0.13,11.77c0-5.4-0.05-10.79-0.13-16.18c-0.08-5.59-0.18-11.25-1.69-16.64
		c-1-3.42-2.48-6.89-3-10.34c-0.89,4.9,1.64,9.87,3,14.76C810.5,151.9,810.6,157.6,810.68,163.19z"/>
	<path d="M920.17,211.9c-3,0.81-6.08,0.63-9.15,0.61c-7.03-0.04-14.04,0.84-20.85,2.62c-3.44,1.06-6.94,1.94-10.47,2.64
		c-4.08,0.51-8.2,0.61-12.3,0.32c-20.6-0.81-41.49-1.68-61.22-7.57c-0.59,1.31-1.25,2.58-2,3.8c20.33,6.46,41.95,7.35,63.26,8.18
		c4.1,0.29,8.22,0.19,12.3-0.32c3.52-0.7,7-1.57,10.43-2.63c6.79-1.79,13.79-2.68,20.81-2.65c3.07,0,6.19,0.19,9.15-0.62
		s5.81-2.84,6.61-5.8c0.34-1.37,0.3-2.81-0.1-4.16C925.75,209.12,923,211.07,920.17,211.9z"/>
</g>
<path class="st7" d="M890.55,200.05c-0.74,1.66-3.86,16-4.6,17.47c-0.74,1.47-4.78,25-5.15,26.32s-26.63-5.52-26.63-5.52
	l-15.81-13.25l-16.25-16.17c0,0-0.48-14.59,11.49-19.27c0.81-0.32,1.65-0.58,2.5-0.78c14.52-3.49,13.06-47.64,13.06-47.64
	l29.8,12.87c0,0-5.52,25.76-5.33,30.73c0.05,1.67,1.36,2.71,3.07,3.34c2.64,0.75,5.4,1.05,8.14,0.88
	C884.84,189.03,891.29,198.4,890.55,200.05z"/>
<path class="st4" d="M943.9,248.43l4.23,1.11c0,0,3.13,4.76-4.23,9.19c-4.67,2.84-9.16,5.98-13.43,9.39l-21.75,6.62l-4.19-13.15
	l20.24-15.36L943.9,248.43z"/>
<path class="st3" d="M943.9,248.43l4.23,1.11c0,0,3.13,4.76-4.23,9.19c-4.67,2.84-9.16,5.98-13.43,9.39l-21.75,6.62l-4.19-13.15
	l20.24-15.36L943.9,248.43z"/>
<path class="st4" d="M785.17,261.13l-8.46,8.28c0,0,15.26,17.66,27,18.76s19.31-13.43,19.31-13.43l-10.16-16L785.17,261.13z"/>
<path class="st3" d="M785.17,261.13l-8.46,8.28c0,0,15.26,17.66,27,18.76s19.31-13.43,19.31-13.43l-10.16-16L785.17,261.13z"/>
<circle class="st3" cx="865.53" cy="140.63" r="29.43"/>
<circle class="st7" cx="865.53" cy="138.42" r="29.43"/>
<path class="st3" d="M918.33,385.49c-6.7,0.77-13.3,2.25-19.69,4.41c-11,3.66-97.2,0.06-98.4,0c0-2.08,0-3.31,0-3.31l4.22-10.48
	l50-6.26h23.92c0,0,36,8.46,39.72,12.11C918.25,384.16,918.33,385.49,918.33,385.49z"/>
<path class="st3" d="M890.55,200.05c-0.74,1.66-3.86,16-4.6,17.47c-0.74,1.47-4.78,25-5.15,26.32s-26.63-5.52-26.63-5.52
	l-15.81-13.25l-16.25-16.17c0,0-0.48-14.59,11.49-19.27l29.72,34.17l13.38-35.65c2.64,0.75,5.4,1.05,8.14,0.88
	C884.84,189.03,891.29,198.4,890.55,200.05z"/>
<path class="st4" d="M863.32,224.9l-30.42-35c-3.62-2.31-8.15-2.64-12.07-0.89c-6.81,2.95-15.27,5.34-17.48,6.81
	s-10.49,10.57-10.49,10.57l24.66,64.51l-10.86,42.49c0,0,1.66,21.71-2.57,29.62c-2.58,5.06-3.78,10.7-3.5,16.37
	c0,0,1.29,10.49-0.18,16c-0.86,3.68-0.92,7.51-0.19,11.22c0,0,87.39,3.68,98.42,0c6.39-2.17,12.99-3.65,19.69-4.41
	c0,0-2-36.8-4-45.63s1.66-42.49,1.66-42.49l-2.39-36.06l14.34-37c0,0-7.77-23.72-15.87-26.11c0,0-14.71-3.5-17.84-5.15
	s-12.33-3.13-12.33-3.13l-4.83,1.62L863.32,224.9z"/>
<path class="st3" d="M841.75,252.44l64.01,4.35c1.62,0.11,2.84,1.51,2.73,3.13l-6.87,101.07c-0.11,1.62-1.51,2.84-3.13,2.73
	l-64.01-4.35c-1.62-0.11-2.84-1.51-2.73-3.13l6.87-101.07C838.73,253.55,840.13,252.33,841.75,252.44z"/>
<path class="st5" d="M843.96,250.24l64.01,4.35c1.62,0.11,2.84,1.51,2.73,3.13l-6.87,101.07c-0.11,1.62-1.51,2.84-3.13,2.73
	l-64.01-4.35c-1.62-0.11-2.84-1.51-2.73-3.13l6.87-101.07C840.94,251.36,842.34,250.13,843.96,250.24z"/>
<rect x="826.18" y="275.94" transform="matrix(0.0678 -0.9977 0.9977 0.0678 507.367 1155.9417)" class="st2" width="92.22" height="61.02"/>
<rect x="868.1" y="266.27" transform="matrix(0.0698 -0.9976 0.9976 0.0698 523.4641 1143.7706)" class="st3" width="13.89" height="49.85"/>
<rect x="890.79" y="340.47" transform="matrix(0.0678 -0.9977 0.9977 0.0678 490.0993 1213.4055)" class="st3" width="7.24" height="7.91"/>
<rect x="866.75" y="305.64" transform="matrix(0.0678 -0.9977 0.9977 0.0678 486.1886 1172.1436)" class="st3" width="7.24" height="40.49"/>
<rect x="871.35" y="242.12" transform="matrix(0.0678 -0.9977 0.9977 0.0678 554.8295 1120.2372)" class="st5" width="11.13" height="42.16"/>
<rect x="871.35" y="242.12" transform="matrix(0.0678 -0.9977 0.9977 0.0678 554.8295 1120.2372)" class="st3" width="11.13" height="42.16"/>
<path class="st3" d="M867,383.46c0,0-0.37,54.46-14.72,85.73c0,0,17.3-41.21,17.3-42.86s9.56-18.95,7-24.1S867,383.46,867,383.46z"
	/>
<path class="st3" d="M867.78,131.06c-0.55-4.82,0.63-9.68,3.33-13.71c-0.66,8.35,4.89,15.93,13.06,17.8
	c-0.69-0.6-0.94-1.56-0.63-2.42c2.05,2.32,3.62,5.07,5.94,7.11s5.8,3.26,8.53,1.81c3.71-2,3.75-7.27,2.79-11.37
	c-2.06-8.73-6.29-16.8-12.29-23.47c-3.04-4.09-7.81-6.51-12.9-6.56c-5.68-0.44-11.58,0.06-16.67,2.61c-2.86,1.56-5.55,3.44-8,5.59
	l-14,11.42c-1.35,0.97-2.5,2.18-3.4,3.58c-0.6,1.17-0.96,2.44-1.06,3.75c-0.73,7.63,2.92,15.01,9.42,19.07
	c-0.14-6.05,3.39-11.58,8.93-14c0.86,0.72,1.37,1.77,1.39,2.89l2.95-5.26c0.44-0.96,1.13-1.78,2-2.37c1.82-1,4.09,0.18,5.64,1.59
	c1.55,1.41,3.06,3.17,5.14,3.39l0.08-7.83"/>
<path class="st5" d="M867.78,129.96c-0.55-4.82,0.63-9.69,3.33-13.72c-0.9,8,5.13,16.26,13.07,17.8c-0.69-0.59-0.94-1.55-0.63-2.41
	c2.05,2.32,3.62,5.06,5.94,7.11s5.8,3.26,8.53,1.8c3.71-2,3.75-7.27,2.79-11.36c-2.06-8.73-6.29-16.8-12.29-23.47
	c-1.86-2.27-4.21-4.1-6.87-5.34c-1.93-0.71-3.95-1.12-6-1.22c-5.68-0.44-11.58,0.05-16.67,2.6c-2.86,1.57-5.55,3.45-8,5.6l-14,11.42
	c-1.35,0.97-2.5,2.18-3.4,3.58c-0.6,1.17-0.96,2.44-1.06,3.75c-0.73,7.63,2.92,15.01,9.42,19.06c-0.13-6.04,3.39-11.57,8.93-14
	c0.86,0.72,1.36,1.77,1.39,2.89l2.94-5.24c0.44-0.96,1.13-1.78,2-2.37c1.82-1,4.09,0.18,5.64,1.59c1.55,1.41,3.06,3.16,5.14,3.39
	l0.08-7.84"/>
<path class="st7" d="M881.72,315.59c-2.57-1.3-45.07,5.33-45.07,5.33s-7-2-23.92-4.78c-16.92-2.78-18-19.32-18-19.32l-1.85-33.11
	l5.71-5l24.46,16c0,0,0.38,8.09,0,9.55c-0.24,1-0.88,2.19-0.82,3c0.04,0.45,0.37,0.82,0.82,0.9c1.66,0.42,24.28,4.08,24.28,4.08
	s52.43-3.59,65.5,14.07c1.04,1.3,1.82,2.78,2.31,4.36C918.38,322.74,884.05,316.74,881.72,315.59z"/>
<path class="st3" d="M915.17,310.74c-2,0.89-3.24,1.53-3.24,1.53s-18.76-0.55-29.3-4.37c-10.54-3.82-23.35-3.14-23.35-3.14
	s-43.92-7.56-37.11-17.43c0.04,0.45,0.37,0.82,0.82,0.9c1.66,0.42,24.28,4.08,24.28,4.08s52.43-3.59,65.5,14.07
	C913.84,307.67,914.66,309.15,915.17,310.74z"/>
<path class="st7" d="M933.41,252.48c0,0,2.58,18.21,2.76,19.69s1.11,19.31,0,21.34s-2.76,5.33-2.76,5.33s1.84,3.86-5.52,5.34
	s-16,5.88-16,5.88s-18.77-0.55-29.25-4.41s-23.36-3.13-23.36-3.13s-55.75-9.57-31.83-21.25c23.92-11.68,40.84,4.14,40.84,4.14
	l26.67-1.65c0,0,9.94-6.08,12.7-5.52c1.95,0.25,3.93-0.07,5.7-0.92l0.19-19.32L933.41,252.48z"/>
<path class="st3" d="M798.17,207.78l-5.34-0.28l-16.18,63c0,0,17.47-4.42,25,0c7.53,4.42,21.34,5.33,21.34,5.33l-5.15-50.22
	L798.17,207.78z"/>
<path class="st4" d="M798.17,206.67l-5.34-0.28l-16.18,63c0,0,17.47-4.42,25,0c7.53,4.42,21.34,5.33,21.34,5.33l-5.15-50.22
	L798.17,206.67z"/>
<path class="st3" d="M920.54,220.47l7.35,1.66c0,0,18.77,27,20.24,28.51s-7,7-10.49,7s-20.6,2-25.57,6.62s-2.9-18.63-2.9-19.16
	s6.17-15.2,6.17-15.2L920.54,220.47z"/>
<path class="st4" d="M920.54,219.37l7.35,1.65c0,0,18.77,27.05,20.24,28.52s-7,7-10.49,7s-20.6,2-25.57,6.62s-2.9-18.63-2.9-19.16
	s6.21-15.25,6.21-15.25L920.54,219.37z"/>
<g class="st6">
	<path d="M871.06,116.33c-0.04-0.77-0.03-1.54,0.05-2.3c-1.52,2.28-2.57,4.85-3.08,7.55v2.32c0,0,0-0.05,0-0.08v0.55
		c0,1.62,0,3.25-0.05,4.87h-0.14v0.75c0-0.26,0-0.51-0.05-0.77c-2-0.32-3.43-2-4.92-3.34c-1.49-1.34-3.82-2.62-5.64-1.59
		c-0.87,0.59-1.56,1.41-2,2.37l-2.97,5.24c-0.03-1.12-0.53-2.17-1.39-2.88c-5.54,2.42-9.07,7.95-8.93,14
		c-5.54-3.47-9.08-9.4-9.49-15.93c-0.35,7.32,3.28,14.25,9.49,18.13c-0.13-6.04,3.39-11.57,8.93-14c0.86,0.72,1.36,1.77,1.39,2.89
		l2.94-5.24c0.44-0.96,1.13-1.78,2-2.37c1.82-1,4.09,0.18,5.64,1.59c1.55,1.41,3.06,3.16,5.14,3.39c0-2.56,0.03-5.11,0.08-7.66
		C868.55,121.15,869.57,118.6,871.06,116.33z"/>
	<path d="M867.68,126.4c0.05-0.68,0.13-1.36,0.23-2l0.11-2.76C867.72,123.21,867.61,124.8,867.68,126.4z"/>
	<path d="M898.02,138.33c-2.73,1.46-6.21,0.24-8.53-1.8s-3.89-4.79-5.94-7.11c-0.31,0.86-0.06,1.82,0.63,2.42
		c-0.2,0-0.39-0.1-0.58-0.15c2,2.3,3.59,5,5.89,7c2.3,2,5.8,3.26,8.53,1.8s3.51-4.88,3.27-8.21
		C901.11,134.9,900.17,137.17,898.02,138.33z"/>
	<path d="M883.54,131.67c-6.85-1.87-11.82-7.79-12.46-14.86c-0.57,7.85,5.35,15.72,13.1,17.23
		C883.51,133.45,883.26,132.51,883.54,131.67z"/>
</g>
<linearGradient id="SVGID_2_" gradientUnits="userSpaceOnUse" x1="1059.1548" y1="61.083" x2="1059.1548" y2="676.3882" gradientTransform="matrix(1 0 0 -1 -15.95 751.44)">
	<stop  offset="0" style="stop-color:#808080;stop-opacity:0.25"/>
	<stop  offset="0.54" style="stop-color:#808080;stop-opacity:0.12"/>
	<stop  offset="1" style="stop-color:#808080;stop-opacity:0.1"/>
</linearGradient>
<path class="st8" d="M1243.78,295.11c0,0-3.94-0.55-3.94-6.28s-2.82-16.46-2.82-16.46l0,0c0,0-2.44-18.67-5.81-21.63
	s-7.7-20.34-7.7-20.34s-0.74-9.43-2.25-11.46s-3.55-7-6.56-14.09s-15.53-11.95-15.53-11.95s-22.69-13.16-29.12-17.45l0,0
	c-0.59-0.36-1.14-0.77-1.64-1.24c-1.12-1.46-6-1.49-6-1.49c-0.51-3.23-1-6.93-1.16-10.28c0-0.36,0-0.72,0-1.08
	c7.17-4.24,12.57-10.92,15.21-18.82c0.12-0.38,0.22-0.77,0.33-1.16c0.89-0.27,1.62-0.91,2-1.76c0.57-1.29,0.59-2.79,1.31-4
	c0.84-1.42,2.44-2.18,3.7-3.24c3.18-2.71,4-7.26,3.85-11.39c-0.1-3.36-0.64-6.74-0.43-10.07c0-0.28,0-0.56,0.06-0.84
	c0.06-0.49,0.13-1,0.22-1.48c0.49-2.48,1.56-4.82,2.16-7.28s0.66-5.23-0.74-7.35c-2.05-3.11-6.32-3.73-10.07-4
	c-4.25-0.36-8,0.1-10.77-3.43c-1.27-1.84-2.7-3.57-4.28-5.16c-0.56-0.52-6-3.85-6-4.06c-5.32-2.47-11.36-2.94-17-1.31
	c-2.83,0.82-5.48,2.16-8.35,2.83c-6.16,1.46-13.26-0.12-18.5,3.41c-2.92,2-4.67,5.19-6.31,8.28c-1.33,2.55-2.69,5.1-4.06,7.65
	c-2.22,4.19-4.46,8.45-5.39,13.09c-0.19,1.01-0.32,2.04-0.37,3.07l0,0c0,0.37,0,0.74,0,1.11c0,0.16,0,0.32,0,0.48
	c0,0.34,0,0.68,0.06,1c0.06,0.32,0,0.41,0.07,0.62c0.07,0.21,0.09,0.68,0.15,1c0.06,0.32,0.18,0.89,0.3,1.32
	c0,0.19,0.12,0.37,0.18,0.56c0.06,0.19,0.22,0.67,0.35,1s0.14,0.35,0.22,0.52c0.15,0.35,0.33,0.69,0.51,1
	c0.08,0.13,0.14,0.26,0.22,0.39c0.27,0.47,0.58,0.92,0.92,1.34c2.13,2.67,5.29,4.37,7.62,6.87c0,0.1,0,0.2,0,0.3
	c0,0.27,0,0.54,0,0.82c0.29,11.32,6.16,21.77,15.68,27.9c0,0.38,0.05,0.77,0.07,1.16c0.19,2.96,0.16,5.94-0.11,8.9
	c-0.83-0.97-2.05-1.51-3.32-1.48c-0.43-0.02-0.86,0.02-1.28,0.11l-0.09-0.07l0,0v0.09c-2.2,0.54-4.91,2.83-7.5,9.34
	c0,0-7.88,8.88-13.88,8.51s-21.19,9.25-21.19,9.25s-14.82,9.61-18,19.41c-1.78,5.56-3.91,11-6.39,16.28l-18.37,37.72l0,0l-3.37,30
	c0,0,1.87,13.31,1.5,15.35s7.69,20.34,7.69,20.34s26.63,46.78,37.51,49.18l0.78-0.54c0.47,0.24,0.96,0.42,1.47,0.54l2.24-1.57
	c0.14,1.76,0.08,3.53-0.18,5.27c-1.49,4.63,0.57,34.77,3.19,40.68s1.69,83.41,1.69,83.41l-0.37,6.83c0,0,0,0.22,0.09,0.6l-0.09,1.62
	l0.27,0.14c0.28,2.17,0.19,4.38-0.27,6.52c-0.94,3-1.32,11.47-1.32,11.47s-7.5,47.88-3.94,57.5c3.56,9.62,6.57,20.16,6.57,20.16
	s3.75,12,0.18,14c-3.57,2-13.68,5.55-11.62,10.54c1.9,4.62,9.11,17,10.18,18.81l-0.09,1l-1.47,15.93c0.24,2.1,0.81,4.16,1.69,6.08
	c1.61,3.48-252.27,7.07-246.31,6.68c1-0.07,2.15-0.18,3.28-0.33c10.89-1.47,281.29-6.33,281.29-6.33c-0.69-0.44-1.33-0.97-1.89-1.57
	l0,0c-1.08-1.05-1.69-2.49-1.67-4c0.16-2.91-5.27-16.72-6.63-20.13l-0.31-0.76c0,0,12.38-12.95,10.32-24.41c0,0-13.7-8-9.19-12.4
	s12.57-17,12.57-17s0.37-47.15,0-54.18c-0.39-4.89-0.15-9.81,0.69-14.64c0.15-0.72,0.33-1.43,0.52-2.14
	c6.24,0.94,12.55,1.42,18.86,1.43c2.31,0,4.64-0.05,7-0.14c0,0.67,0.03,1.39,0.09,2.16c0.52,11.68,1.49,32.17,2.28,39.78
	c1.12,10.9,7.31,40.31,7.31,40.31s-11.81,7.57,2.06,26.26c0,0,0,6.76-0.92,7.75l0,0c-0.98,3.21-1.77,6.47-2.37,9.77
	c-0.58,3.51-0.82,7.08,0.12,8.92c2.25,4.42,15.75,4.06,15.75,4.06l0,0c0.11-0.03,0.22-0.04,0.33-0.05c5.15-0.54,10.3,1.01,14.29,4.3
	c5.13,4.12,24.59,2.32,35.14,1c4.13-0.53,6.89-1,6.89-1c0.13-0.47,0.18-0.96,0.14-1.44l0,0c-0.11-2.59-2.14-8.27-15.9-13.34
	c0,0-12.94-8.7-12.76-16.28h-0.29h-1.49c0.94-0.03,1.6-0.03,1.6-0.03s-5.07-18.49-3-20c2.07-1.51-4.13-22-4.13-22
	s-3.55-34.4-3.75-36.8c0.01-2.07,0.33-4.12,0.94-6.1l-0.94-18.87c0,0-0.18-6.27,0-8.31c-0.02-1.77-0.16-3.54-0.42-5.29
	c-0.09-0.7-0.18-1.43-0.28-2.15c4.85-1.23,8-2.36,8-2.36l-0.56-65.65c4.12-8,4.88-25.56,4.86-38c0-8-0.36-13.92-0.36-13.92
	l5.63-9.19c0,0,1.3-11-0.76-13.41c-0.91-1.09-0.5-2.22,0.25-3.15c0.39-0.32,0.81-0.62,1.25-0.88c-0.05-0.07-0.09-0.14-0.13-0.22
	c0.39-0.33,0.81-0.63,1.25-0.89c0,0-2-3.1-0.21-4.41c1.68,1.14,3.18,2.05,4.32,2.7c-0.08,0.73-0.16,1.15-0.16,1.15l0.48-1
	c1.1,0.62,1.77,1,1.77,1s8.82-17.57,8.63-20.15c-0.19-2.58,6-13.5,6-13.5s0.75-5.74,4.13-8.14s2.62-19.79,2.62-19.79
	s0.94-9.06,3.19-12.75S1243.78,295.11,1243.78,295.11z M1075.02,287.4l0.17,4.19c-1-1.61-1.72-2.76-1.72-2.76L1075.02,287.4z"/>
<path class="st2" d="M1221.74,370.55l-2.16,9.2c0,0-17.3-8.85-20.41-20.05s5.21-15.47,5.21-15.47l16.13,6.82L1221.74,370.55z"/>
<path class="st3" d="M1221.74,370.55l-2.16,9.2c0,0-17.3-8.85-20.41-20.05s5.21-15.47,5.21-15.47l16.13,6.82L1221.74,370.55z"/>
<path class="st2" d="M1254.65,681.66c0,0-273,5.88-284,6.62c-5.84,0.39,248.09-3.19,246.51-6.64c-0.86-1.9-1.42-3.93-1.66-6
	l1.45-15.85l0.76-8.43l23.37-6.08l3.31,10.13l0.31,0.76c1.32,3.39,6.66,17.13,6.5,20c-0.03,1.5,0.56,2.95,1.63,4
	C1253.37,680.74,1253.99,681.24,1254.65,681.66z"/>
<path class="st2" d="M1233.89,675.6c0.04,0.48-0.01,0.97-0.14,1.44c0,0-34.22,5.7-41.22,0c-3.98-3.37-9.19-4.9-14.36-4.23
	c0,0-13.24,0.36-15.45-4c-0.92-1.83-0.68-5.38-0.11-8.87c0.58-3.28,1.36-6.53,2.32-9.72l0.53-0.42l3.15-2.53l36.88-1.09h0.28
	c-0.18,7.54,12.51,16.19,12.51,16.19C1231.79,667.37,1233.78,673.02,1233.89,675.6z"/>
<path class="st3" d="M1233.9,675.6c0.04,0.49-0.02,0.97-0.15,1.44c0,0-34.22,5.7-41.21,0c-3.98-3.37-9.2-4.91-14.37-4.23
	c0,0-13.25,0.36-15.46-4c-0.91-1.83-0.68-5.38-0.11-8.88c5.1,0.51,13.15,1.78,16.31,4.82c4.78,4.6,12.88,9.2,17.84,9.57
	C1200.67,674.56,1223.98,675.3,1233.9,675.6z"/>
<path class="st3" d="M1008,686c-5.84,0.39,80.74,1.09,79.16-2.36c4.08,1.37,9.73,2.8,12.7,1.49c3.52-1.57,16-2.57,23-3
	c0.53,0.59,1.13,1.1,1.79,1.53"/>
<path class="st9" d="M1148.39,209.77c-13.2-5.13-30.18-22.08-25.94-30c0.94-2,1.5-4.16,1.65-6.36c0.27-2.99,0.31-6,0.12-9
	c-0.3-4.91-0.89-9.81-1.77-14.65c0,0,41.21,0.93,38.81,7c-0.7,1.79-0.82,4.88-0.62,8.33c0.2,3.45,0.69,7.38,1.21,10.69
	c0.71,4.53,1.44,8,1.44,8s-2.53,3.53-4,3.72S1167.33,217.12,1148.39,209.77z"/>
<path class="st3" d="M1114.66,658.12l-0.31,0.34c-12.32-14.9-27.22,3.68-27.22,3.68l-0.22-0.4l0.76-8.43l23.37-6.08l3.31,10.13
	L1114.66,658.12z"/>
<path class="st3" d="M1205.79,647.23c0,0-9-0.18-13.8,4.06c-4.8,4.24-28,0.91-27,0c0.29-0.46,0.47-0.99,0.52-1.53l3.15-2.53
	l36.88-1.09C1205.68,646.84,1205.79,647.23,1205.79,647.23z"/>
<path class="st4" d="M1127.78,603.82c0,0-7.91,12.51-12.33,16.92s9,12.33,9,12.33c2,11.41-10.12,24.29-10.12,24.29
	c-12.32-14.9-27.22,3.67-27.22,3.67s-8.1-14-10.12-19s7.91-8.45,11.4-10.49c3.49-2.04-0.18-14-0.18-14s-2.94-10.49-6.44-20.06
	s3.86-57.2,3.86-57.2s0.38-8.47,1.29-11.42c0.45-2.13,0.55-4.32,0.27-6.48c-0.06-0.73-0.13-1.33-0.18-1.75
	c-0.05-0.42-0.09-0.6-0.09-0.6l0.14-0.24l5-9.32c0,0,40.33,13.88,37.93,19.75c-0.67,1.66-1.18,3.38-1.52,5.13"/>
<path class="st4" d="M1205.79,646.13c0,0-9-0.19-13.8,4c-4.8,4.19-28,0.92-27,0s0.91-7.72,0.91-7.72c-13.61-18.59-2-26.13-2-26.13
	s-6.07-29.25-7.17-40.1c-0.77-7.57-1.72-28-2.23-39.57c-0.22-5-0.35-8.45-0.35-8.45l11.02-2.19l1.43-0.28l26.82-5.39
	c0,0,0.74,5,1.24,9.09c0.25,1.75,0.39,3.51,0.41,5.27c-0.17,2,0,8.27,0,8.27l0.92,18.76c-0.59,1.97-0.9,4.01-0.92,6.07
	c0.19,2.4,3.68,36.61,3.68,36.61s6.07,20.42,4,21.89C1200.68,627.73,1205.79,646.13,1205.79,646.13z"/>
<path class="st3" d="M1161.26,156.79c-0.7,1.79-0.82,4.88-0.62,8.33c-11.26,6.78-25.42,6.52-36.42-0.68
	c-0.3-4.91-0.89-9.81-1.77-14.65C1122.45,149.79,1163.66,150.72,1161.26,156.79z"/>
<path class="st9" d="M1177.17,134.71c0.23,18.89-14.91,34.39-33.8,34.62s-34.39-14.91-34.62-33.8c0-0.28,0-0.54,0-0.82
	c0-18.9,15.32-34.22,34.22-34.22c18.9,0,34.22,15.32,34.22,34.22H1177.17z"/>
<path class="st3" d="M1148.39,209.77c-13.2-5.13-30.18-22.08-25.94-30c0.94-2,1.5-4.16,1.65-6.36l18.07,14.86l11.18,9.17l8.5-21.63
	c0.71,4.53,1.44,8,1.44,8s-2.53,3.53-4,3.72S1167.33,217.12,1148.39,209.77z"/>
<polygon class="st4" points="1195.12,275.44 1180.03,528.94 1160.35,530.23 1109.38,383.24 1117.74,208.73 1119.51,171.86 
	1142.17,190.47 1153.35,199.64 1162.1,177.37 1178.37,191.55 "/>
<path class="st3" d="M1129.99,530.22c-0.67,1.66-1.18,3.38-1.52,5.13c-14.33-2.21-28.26-6.55-41.3-12.89l-0.27-0.14l0.09-1.61v-0.84
	l5-9.32C1091.99,510.55,1132.39,524.35,1129.99,530.22z"/>
<path class="st3" d="M1165.5,535.39c-3.66,0.63-7.35,1.05-11.06,1.27c-0.22-5-0.35-8.45-0.35-8.45l11.08-2.24L1165.5,535.39z"/>
<path class="st3" d="M1194.7,529.39c-7.11,1.85-18.1,3.93-27.92,2.63l-0.14-6.33l26.82-5.39
	C1193.46,520.3,1194.17,525.26,1194.7,529.39z"/>
<path class="st3" d="M1166.6,533.18c-41,7-78.55-13.07-78.55-13.07l0.36-6.8c0,0,0.93-77.09-1.65-83
	c-2.58-5.91-4.59-35.84-3.13-40.41c1.46-4.57-5.33-73.57-5.33-73.57l-1.1-28l-40.29-16.37l18-37.53c2.43-5.26,4.52-10.67,6.26-16.2
	c3.13-9.75,17.66-19.32,17.66-19.32s14.9-9.56,20.79-9.2c5.89,0.36,13.61-8.46,13.61-8.46c5.7-14.53,10.86-8,10.86-8
	c0,0.7,0,0-0.28,2.15c-2,15.95,32.34,66.35,32.83,67.25l0,0l3.31,79.66l3.31,100.81L1166.6,533.18z"/>
<path class="st2" d="M1165.5,533.18c-41,7-78.56-13.07-78.56-13.07l0.37-6.8c0,0,0.92-77.09-1.66-83s-4.59-35.87-3.12-40.48
	c1.47-4.61-5.36-73.54-5.36-73.54l-1.11-28l-40.28-16.37l18-37.53c2.42-5.26,4.52-10.67,6.26-16.19c3.13-9.72,17.71-19.3,17.71-19.3
	s14.9-9.56,20.78-9.2s13.64-8.45,13.64-8.45c5.71-14.53,12-8,12-8c0,0.7-0.6,1-0.28,2.15c4.4,15.47,31.24,66.35,31.73,67.25l0,0
	l3.31,79.66l3.24,100.86L1165.5,533.18z"/>
<path class="st3" d="M1154.45,244.9c-4.41-1.84-27.77-28.51-27.77-28.51v-6.07c-0.85-2-5.91-0.78-10,0.62l1.76-36.87l2,1.66
	C1124.81,191.19,1153.97,244.01,1154.45,244.9z"/>
<path class="st2" d="M1155.56,242.7c-4.42-1.85-27.78-28.51-27.78-28.51v-6.08c-0.85-2-5.9-0.78-10,0.62l1.73-36.83l2,1.65
	C1125.92,188.99,1155.07,241.8,1155.56,242.7z"/>
<path class="st3" d="M1088.05,375.7c0.55,0,28.51-2.94,28.51-2.94s16.93,33.3,15.82,41.39s-3.12,15.27-9.93,14
	c-6.81-1.27-36.65,1-36.65,1L1088.05,375.7z"/>
<path class="st2" d="M1086.94,373.49c0.56,0,28.52-2.94,28.52-2.94s16.92,33.35,15.82,41.35c-1.1,8-3.13,15.27-9.93,14
	c-6.8-1.27-36.66,1-36.66,1L1086.94,373.49z"/>
<path class="st9" d="M1108.01,357.9c0,0,25.66,13.8,26.21,18s-13.06-1.84-16-2.58c-1.94-0.46-3.91-0.77-5.89-0.92l-19.61,0.53
	L1108.01,357.9z"/>
<circle class="st3" cx="1147.28" cy="243.92" r="2.7"/>
<circle class="st5" cx="1147.28" cy="242.82" r="2.7"/>
<circle class="st3" cx="1152.25" cy="360.8" r="2.7"/>
<circle class="st5" cx="1152.25" cy="359.69" r="2.7"/>
<circle class="st3" cx="1149.98" cy="302.36" r="2.7"/>
<circle class="st5" cx="1149.98" cy="301.26" r="2.7"/>
<path class="st2" d="M1212.22,371.84c0,0,1.84,2.76,0,4c-1.84,1.24,0.18,4.42,0.18,4.42s-4.59,2.68-2.57,5.11s0.74,13.34,0.74,13.34
	l-5.52,9.19c0,0,0.33,5.89,0.35,13.85c0,12.42-0.73,29.88-4.77,37.84l0.54,65.31c0,0-19.33,7.07-35.51,4.91l-2.4-104.8
	c0,0,3.5-59.43,4.79-70.83c0.76-5.92,1.06-11.89,0.92-17.85c0,0-0.55-17.84-2.4-26.11c0,0-2-35.88-2.2-45.81
	c-0.09-4.75,0.16-18.61,0.44-31.79c0.31-14.41,0.66-28,0.66-28l-3.65-28.89c0,0,3.65-0.36,4.75,1.1c0.49,0.46,1.03,0.87,1.6,1.23
	l0,0c6.31,4.26,28.57,17.36,28.57,17.36s12.32,4.9,15.27,11.92c2.95,7.02,5,12,6.43,14c1.43,2,2.21,11.4,2.21,11.4
	s4.24,17.3,7.55,20.23c3.31,2.93,5.69,21.53,5.69,21.53l-29.25,23c0,0-2.57,38.26-3.12,39.74
	C1200.97,338.72,1212.22,371.84,1212.22,371.84z"/>
<path class="st2" d="M1213.33,371.84c0,0,1.83,2.76,0,4c-1.83,1.24,0.17,4.42,0.17,4.42s-4.59,2.68-2.57,5.11s0.74,13.34,0.74,13.34
	l-5.5,9.19c0,0,0.33,5.89,0.36,13.85c0,12.42-0.73,29.88-4.77,37.84l0.55,65.31c0,0-19.33,7.07-35.51,4.91l-2.39-104.8
	c0,0,3.49-59.43,4.79-70.83c0.76-5.92,1.06-11.89,0.91-17.85c0,0-0.55-17.84-2.39-26.11c0,0-2-35.88-2.21-45.81
	c-0.09-4.75,0.16-18.61,0.44-31.79c0.31-14.41,0.66-28,0.66-28l-4.82-29.28c0,0,4.82,0,5.93,1.49c0.49,0.47,1.02,0.88,1.6,1.23l0,0
	c6.3,4.26,28.56,17.36,28.56,17.36s12.29,4.9,15.29,11.92s5,12,6.43,14c1.43,2,2.21,11.4,2.21,11.4s4.24,17.3,7.55,20.23
	c3.31,2.93,5.7,21.53,5.7,21.53l-29.25,23c0,0-2.57,38.26-3.13,39.74C1202.12,338.72,1213.33,371.84,1213.33,371.84z"/>
<path class="st3" d="M1178.3,213.11l2.65,7.7l-13.91,14c0.31-14.41,0.66-28,0.66-28l-4.82-29.27c0,0,4.82,0,5.93,1.49
	c0.49,0.47,1.02,0.88,1.6,1.23l0,0l11.82,34.09L1178.3,213.11z"/>
<path class="st2" d="M1177.17,210.9l2.65,7.69l-13.9,14c0.3-14.41,0.66-28,0.66-28l-4.83-29.28c0,0,4.83,0,5.93,1.49
	c0.49,0.46,1.03,0.88,1.6,1.23l0,0l11.89,34.12L1177.17,210.9z"/>
<path class="st3" d="M1177.17,134.71c0,3.6-0.56,7.18-1.68,10.61c-0.38,0.06-0.77-0.03-1.08-0.26c-0.27-9-4.69-17.46-10.14-24.65
	c-1.53-2.17-3.39-4.09-5.5-5.7c-2.14-1.6-4.8-2.36-7.46-2.11c-3,0.41-5.65,2.45-8.68,2.71c-4,0.33-7.58-2.44-11.55-2.57
	c-3.27,0.03-6.36,1.46-8.49,3.94c-2.09,2.46-3.64,5.33-4.55,8.43c-1.57,4.7-2.43,9.61-2.54,14.56c-0.05,2.8-0.32,6.31-2.92,7.33
	c0.4-4.16-0.97-8.3-3.77-11.4l-0.06-0.07c0-0.28,0-0.54,0-0.82c0-18.9,15.32-34.22,34.22-34.22c18.9,0,34.22,15.32,34.22,34.22
	L1177.17,134.71z"/>
<path class="st10" d="M1157.17,80.38c-5.2-2.44-11.11-2.91-16.62-1.3c-2.77,0.82-5.38,2.15-8.19,2.82c-6,1.45-13-0.12-18.15,3.39
	c-2.86,2-4.58,5.16-6.18,8.24l-4,7.61c-2.18,4.17-4.38,8.41-5.29,13c-0.91,4.59-0.36,9.73,2.55,13.43c2.11,2.68,5.25,4.37,7.55,6.9
	c2.79,3.12,4.16,7.26,3.76,11.43c2.6-1,2.86-4.53,2.92-7.33c0.11-4.95,0.97-9.86,2.54-14.56c0.91-3.1,2.46-5.97,4.55-8.43
	c2.13-2.48,5.22-3.92,8.49-3.95c4,0.14,7.59,2.91,11.55,2.57c3-0.25,5.66-2.29,8.68-2.7c2.66-0.25,5.32,0.5,7.46,2.11
	c2.11,1.6,3.97,3.53,5.49,5.7c5.46,7.2,9.89,15.62,10.15,24.65c1.13,0.82,2.76-0.26,3.32-1.54c0.56-1.28,0.58-2.78,1.29-4
	c0.82-1.41,2.39-2.17,3.62-3.23c3.12-2.69,3.9-7.22,3.78-11.33s-0.92-8.28-0.14-12.32c0.47-2.47,1.53-4.8,2.11-7.25
	s0.65-5.2-0.72-7.31c-2-3.09-6.21-3.71-9.88-4c-4.17-0.36-7.9,0.1-10.56-3.41c-1.25-1.83-2.66-3.55-4.2-5.14
	C1162.5,83.9,1157.17,80.6,1157.17,80.38z"/>
<path class="st3" d="M1048.45,291.26l-10.44-19.31l-3.31,29.8c0,0,1.84,13.24,1.47,15.27c-0.37,2.03,7.54,20.23,7.54,20.23
	s26.13,46.55,36.8,48.94l36-25.76l-9.56-12.14c0,0-3.31-1.29-4.14,0c0,0-17.76-30.54-19.59-32.74c-1.83-2.2-1.48-6.63-1.48-6.63
	s-2.76-2.94-1.84-5.7c0.92-2.76-5.28-12.32-5.28-12.32l5.7-5.33L1048.45,291.26z"/>
<path class="st2" d="M1038.56,269.74l-2.76,2.21l-3.31,29.8c0,0,1.84,13.24,1.47,15.27c-0.37,2.03,7.55,20.23,7.55,20.23
	s26.12,46.55,36.79,48.94l36.06-25.76l-9.57-12.14c0,0-3.31-1.29-4.14,0c0,0-17.75-30.54-19.59-32.74c-1.84-2.2-1.47-6.63-1.47-6.63
	s-2.76-2.94-1.84-5.7c0.92-2.76-5.34-12.32-5.34-12.32l5.7-5.33L1038.56,269.74z"/>
<path class="st3" d="M1209.83,386.52c2,2.43,0.74,13.35,0.74,13.35l-5.52,9.13c0,0,0.33,5.9,0.35,13.86l-9.28,2.9
	c-2.91,0.91-6.01-0.72-6.91-3.63c-0.18-0.59-0.27-1.2-0.25-1.81l1.61-51.6l21.65,8.27c-1.84,1.28,0.18,4.42,0.18,4.42
	S1207.81,384.09,1209.83,386.52z"/>
<path class="st2" d="M1210.93,385.42c2,2.42,0.74,13.34,0.74,13.34l-5.5,9.14c0,0,0.33,5.89,0.36,13.85l-9.45,2.95
	c-2.84,0.89-5.87-0.69-6.76-3.53c-0.18-0.58-0.26-1.18-0.24-1.78l1.61-51.78l21.64,8.29c-1.85,1.28,0.17,4.42,0.17,4.42
	S1208.91,382.99,1210.93,385.42z"/>
<path class="st9" d="M1218.11,360.8c0,0-1.47,9.39-5.15,9.94s-5.33,15.19-9,14.68c-3.67-0.51-1.24-13.62-1.11-16.16
	s-4-13.06-0.92-15.45c3.08-2.39,12.88,0,12.88,0L1218.11,360.8z"/>
<path class="st3" d="M1225.89,288.5l6.93-14c0,0,2.77,10.67,2.77,16.37s3.86,6.26,3.86,6.26s4.23,5,2,8.65s-3.12,12.69-3.12,12.69
	s0.73,17.29-2.58,19.68c-3.31,2.39-4.05,8.1-4.05,8.1s-6.07,10.85-5.88,13.43c0.19,2.58-8.46,20.05-8.46,20.05
	s4.23-21.71-20.42-31.09c0,0-0.19-7.36,1.65-9.38c1.84-2.02,4.71-3,2.91-13.16s-0.52-22.41-0.52-24.86s5.52-17.72,5.52-17.72
	L1225.89,288.5z"/>
<path class="st2" d="M1228.97,272.5l6.06,2c0,0,2.77,10.67,2.77,16.37s3.86,6.26,3.86,6.26s4.23,5,2,8.65s-3.13,12.69-3.13,12.69
	s0.74,17.29-2.57,19.68c-3.31,2.39-4,8.1-4,8.1s-6.07,10.85-5.88,13.43c0.19,2.58-8.47,20.05-8.47,20.05s4.23-21.71-20.42-31.09
	c0,0-0.18-7.36,1.66-9.38s4.71-3,2.91-13.16s-0.52-22.41-0.52-24.86s5.52-17.72,5.52-17.72L1228.97,272.5z"/>
<path class="st3" d="M1095.09,635.37c0,0,9.66-6.07,16-1.66C1117.43,638.12,1095.09,635.37,1095.09,635.37z"/>
<path class="st3" d="M1170.17,616.6c0,0,8.55-1.1,15.73,6.63C1193.08,630.96,1170.17,616.6,1170.17,616.6z"/>
<g class="st6">
	<path d="M1182.66,132.99c-1.23,1.07-2.81,1.82-3.63,3.23c-0.7,1.21-0.72,2.71-1.28,4s-2.19,2.36-3.33,1.54
		c-0.26-9-4.69-17.45-10.14-24.65c-1.52-2.17-3.38-4.09-5.49-5.69c-2.14-1.61-4.8-2.37-7.47-2.12c-3,0.41-5.64,2.45-8.67,2.71
		c-4,0.33-7.59-2.44-11.56-2.57c-3.26,0.02-6.36,1.46-8.48,3.94c-2.09,2.46-3.64,5.33-4.55,8.43c-1.57,4.7-2.43,9.61-2.54,14.56
		c-0.06,2.79-0.32,6.27-2.9,7.31c0.06,0.74,0.06,1.49,0,2.23c2.61-1,2.87-4.53,2.93-7.33c0.11-4.95,0.97-9.86,2.54-14.56
		c0.91-3.1,2.46-5.97,4.55-8.43c2.12-2.48,5.22-3.92,8.48-3.95c4,0.14,7.6,2.91,11.56,2.57c3-0.25,5.66-2.29,8.67-2.7
		c2.67-0.25,5.33,0.5,7.47,2.11c2.11,1.6,3.97,3.53,5.49,5.7c5.45,7.2,9.88,15.62,10.14,24.65c1.14,0.82,2.77-0.26,3.33-1.54
		c0.56-1.28,0.58-2.78,1.28-4c0.82-1.41,2.4-2.17,3.63-3.23c3.12-2.69,3.9-7.22,3.78-11.33c0-0.13,0-0.25,0-0.38
		C1186.27,127.07,1185.32,130.7,1182.66,132.99z"/>
	<path d="M1108.83,132.29c-2.29-2.53-5.43-4.23-7.54-6.91c-1.78-2.37-2.8-5.22-2.91-8.18c-0.31,3.7,0.72,7.39,2.91,10.39
		c2.11,2.68,5.25,4.37,7.54,6.9c2.21,2.47,3.54,5.61,3.78,8.92C1112.92,139.34,1111.55,135.33,1108.83,132.29z"/>
	<path d="M1188.41,102.09c-0.59,2.45-1.64,4.78-2.12,7.25c-0.29,1.67-0.39,3.37-0.31,5.06c0.03-0.96,0.14-1.91,0.31-2.85
		c0.48-2.47,1.53-4.8,2.12-7.25c0.34-1.35,0.45-2.75,0.33-4.14C1188.68,100.81,1188.57,101.45,1188.41,102.09z"/>
</g>
<g>
	<path class="st4" d="M89.35,196.43c-5.63,0-10.83-1-15.6-2.99c-4.77-1.99-8.56-5.24-11.38-9.75c-2.82-4.51-4.23-10.49-4.23-17.94
		V131.3c0-7.45,1.41-13.43,4.23-17.94c2.82-4.51,6.61-7.76,11.38-9.75c4.77-1.99,9.97-2.99,15.6-2.99c6.24,0,11.81,1.02,16.7,3.05
		c4.9,2.04,8.78,4.96,11.64,8.77c2.86,3.81,4.29,8.5,4.29,14.04c0,3.9-0.82,6.48-2.47,7.74c-1.65,1.26-4.2,1.88-7.67,1.88
		c-2.69,0-5-0.43-6.96-1.3c-1.95-0.87-3.01-2.47-3.19-4.81c0-0.87-0.11-1.95-0.32-3.25c-0.22-1.3-0.67-2.6-1.37-3.9
		c-0.69-1.3-1.82-2.38-3.38-3.25c-1.56-0.87-3.73-1.3-6.5-1.3c-3.73,0-6.61,1.06-8.65,3.19c-2.04,2.12-3.06,5.4-3.06,9.81v34.45
		c0,4.42,1.04,7.69,3.12,9.81c2.08,2.12,4.98,3.19,8.71,3.19c2.6,0,4.66-0.43,6.18-1.3c1.52-0.87,2.62-1.97,3.31-3.31
		c0.69-1.34,1.17-2.75,1.43-4.23c0.26-1.47,0.43-2.86,0.52-4.16c0.17-2.43,1.24-4.05,3.19-4.88c1.95-0.82,4.23-1.23,6.83-1.23
		c3.55,0,6.15,0.63,7.8,1.88c1.65,1.26,2.47,3.83,2.47,7.73c0,5.72-1.43,10.62-4.29,14.69c-2.86,4.07-6.74,7.17-11.64,9.3
		C101.15,195.37,95.59,196.43,89.35,196.43z"/>
	<path class="st4" d="M158.25,196.95c-5.29,0-10.16-1.28-14.63-3.83c-4.46-2.56-8.06-5.94-10.79-10.14c-2.73-4.2-4.1-8.73-4.1-13.58
		v-9.1c0-4.85,1.32-9.36,3.97-13.52c2.64-4.16,6.22-7.5,10.73-10.01c4.5-2.51,9.45-3.77,14.82-3.77c5.29,0,10.18,1.24,14.69,3.71
		c4.51,2.47,8.13,5.76,10.85,9.88c2.73,4.12,4.1,8.69,4.1,13.72v9.1c0,4.77-1.37,9.25-4.1,13.45c-2.73,4.21-6.35,7.6-10.85,10.21
		C168.43,195.65,163.53,196.95,158.25,196.95z M158.25,179.4c1.73,0,3.31-0.48,4.75-1.43c1.43-0.95,2.58-2.19,3.44-3.7
		c0.87-1.52,1.3-3.14,1.3-4.88v-9.1c0-1.65-0.43-3.21-1.3-4.68c-0.87-1.47-2.02-2.69-3.44-3.64c-1.43-0.95-3.01-1.43-4.75-1.43
		c-1.73,0-3.31,0.48-4.75,1.43c-1.43,0.96-2.56,2.17-3.38,3.64c-0.82,1.47-1.23,3.03-1.23,4.68v9.1c0,1.73,0.41,3.36,1.23,4.88
		c0.82,1.52,1.95,2.75,3.38,3.7C154.93,178.92,156.51,179.4,158.25,179.4z"/>
	<path class="st4" d="M207.12,195.65c-2.86,0-5.22-0.65-7.08-1.95c-1.86-1.3-2.79-2.73-2.79-4.29v-49.53c0-1.82,0.93-3.29,2.79-4.42
		c1.86-1.13,4.23-1.69,7.08-1.69c2.51,0,4.64,0.56,6.37,1.69c1.73,1.13,2.6,2.6,2.6,4.42v4.81c0.87-1.91,2.1-3.75,3.7-5.52
		c1.6-1.78,3.42-3.25,5.46-4.42c2.04-1.17,4.14-1.76,6.3-1.76h3.77c1.91,0,3.58,0.87,5,2.6c1.43,1.73,2.15,3.77,2.15,6.11
		c0,2.43-0.71,4.51-2.15,6.24c-1.43,1.73-3.1,2.6-5,2.6h-3.77c-2.34,0-4.59,0.8-6.76,2.4c-2.17,1.6-3.94,3.83-5.33,6.7
		c-1.39,2.86-2.08,6.28-2.08,10.27v19.5c0,1.56-1,2.99-2.99,4.29C212.41,195,209.98,195.65,207.12,195.65z"/>
	<path class="st4" d="M275.63,196.95c-5.29,0-10.16-1.28-14.63-3.83c-4.46-2.56-8.06-5.94-10.79-10.14c-2.73-4.2-4.1-8.73-4.1-13.58
		v-9.1c0-4.85,1.32-9.36,3.97-13.52c2.64-4.16,6.22-7.5,10.73-10.01c4.5-2.51,9.45-3.77,14.82-3.77c5.29,0,10.18,1.24,14.69,3.71
		c4.51,2.47,8.13,5.76,10.85,9.88c2.73,4.12,4.1,8.69,4.1,13.72v9.1c0,4.77-1.37,9.25-4.1,13.45c-2.73,4.21-6.35,7.6-10.85,10.21
		C285.82,195.65,280.92,196.95,275.63,196.95z M275.63,179.4c1.73,0,3.31-0.48,4.75-1.43c1.43-0.95,2.58-2.19,3.44-3.7
		c0.87-1.52,1.3-3.14,1.3-4.88v-9.1c0-1.65-0.43-3.21-1.3-4.68c-0.87-1.47-2.02-2.69-3.44-3.64c-1.43-0.95-3.01-1.43-4.75-1.43
		c-1.73,0-3.31,0.48-4.75,1.43c-1.43,0.96-2.56,2.17-3.38,3.64c-0.82,1.47-1.23,3.03-1.23,4.68v9.1c0,1.73,0.41,3.36,1.23,4.88
		c0.82,1.52,1.95,2.75,3.38,3.7C272.32,178.92,273.9,179.4,275.63,179.4z"/>
	<path class="st4" d="M324.64,195.65c-2.95,0-5.35-0.65-7.21-1.95c-1.86-1.3-2.79-2.73-2.79-4.29v-49.53c0-1.82,0.93-3.29,2.79-4.42
		c1.86-1.13,4.27-1.69,7.21-1.69c2.43,0,4.51,0.56,6.24,1.69c1.73,1.13,2.6,2.6,2.6,4.42v2.99c1.21-2.51,3.33-4.79,6.37-6.83
		c3.03-2.04,6.72-3.06,11.05-3.06c3.99,0,7.65,1.24,10.98,3.71c3.34,2.47,6.02,5.76,8.06,9.88c2.04,4.12,3.06,8.69,3.06,13.72v29.12
		c0,2.08-1.06,3.64-3.19,4.68c-2.13,1.04-4.44,1.56-6.96,1.56c-2.34,0-4.59-0.52-6.76-1.56c-2.17-1.04-3.25-2.6-3.25-4.68v-29.12
		c0-1.65-0.41-3.21-1.23-4.68c-0.82-1.47-1.95-2.69-3.38-3.64c-1.43-0.95-3.01-1.43-4.75-1.43c-1.39,0-2.75,0.39-4.09,1.17
		c-1.34,0.78-2.45,1.88-3.32,3.31c-0.87,1.43-1.3,3.19-1.3,5.27v29.12c0,1.56-1,2.99-2.99,4.29
		C329.8,195,327.42,195.65,324.64,195.65z"/>
	<path class="st4" d="M397.18,196.95c-4.51,0-8.41-1.41-11.7-4.22c-3.29-2.82-4.94-7.17-4.94-13.07c0-5.11,1.3-9.1,3.9-11.96
		c2.6-2.86,6.17-4.85,10.72-5.98c4.55-1.13,9.81-1.69,15.79-1.69h4.68v-1.3c0-1.47-0.3-2.95-0.91-4.42
		c-0.61-1.47-1.6-2.71-2.99-3.71c-1.39-1-3.34-1.5-5.85-1.5c-3.55,0-6.2,0.35-7.93,1.04c-1.73,0.69-3.08,1.41-4.03,2.15
		c-0.95,0.74-2.04,1.1-3.25,1.1c-2.17,0-3.83-1.08-5-3.25c-1.17-2.17-1.75-4.42-1.75-6.76c0-2.08,1.19-3.9,3.57-5.46
		c2.38-1.56,5.29-2.77,8.71-3.64c3.42-0.87,6.74-1.3,9.95-1.3c7.1,0,12.83,1.21,17.16,3.64c4.33,2.43,7.5,5.57,9.49,9.42
		c1.99,3.86,2.99,8,2.99,12.42v30.94c0,1.73-0.93,3.21-2.79,4.42c-1.86,1.21-4.23,1.82-7.08,1.82c-2.51,0-4.64-0.61-6.37-1.82
		c-1.73-1.21-2.6-2.69-2.6-4.42v-2.86c-2.34,2.69-5.07,5.09-8.19,7.22C405.63,195.88,401.77,196.95,397.18,196.95z M405.89,182.26
		c1.39,0,2.82-0.54,4.29-1.63c1.47-1.08,2.75-2.53,3.83-4.35c1.08-1.82,1.63-3.81,1.63-5.98v-0.52h-0.52
		c-2.43,0-4.75,0.15-6.96,0.46c-2.21,0.3-3.99,0.95-5.33,1.95c-1.34,1-2.01,2.53-2.01,4.61c0,1.91,0.48,3.29,1.43,4.16
		C403.2,181.82,404.42,182.26,405.89,182.26z"/>
	<path class="st4" d="M473.88,197.34c-1.99,0-3.88-0.3-5.65-0.91c-1.78-0.61-2.92-1.47-3.44-2.6l-22.88-50.05
		c-0.17-0.35-0.32-0.76-0.45-1.23c-0.13-0.48-0.2-0.89-0.2-1.23c0-1.56,0.78-2.99,2.34-4.29c1.56-1.3,3.4-2.32,5.52-3.06
		c2.12-0.74,4.05-1.1,5.78-1.1c1.21,0,2.34,0.24,3.38,0.71c1.04,0.48,1.78,1.32,2.21,2.54l13.39,33.93l13.39-33.93
		c0.43-1.21,1.15-2.06,2.15-2.54c1-0.48,2.1-0.71,3.31-0.71c1.39,0,3.16,0.39,5.33,1.17c2.17,0.78,4.1,1.82,5.79,3.12
		s2.53,2.73,2.53,4.29c0,0.43-0.04,0.82-0.13,1.17c-0.09,0.35-0.22,0.74-0.39,1.17l-22.88,50.05c-0.52,1.13-1.67,1.99-3.44,2.6
		C477.76,197.03,475.87,197.34,473.88,197.34z"/>
	<path class="st4" d="M522.37,121.81c-2.95,0-5.46-0.95-7.54-2.86c-2.08-1.91-3.12-4.07-3.12-6.5c0-2.51,1.04-4.68,3.12-6.5
		c2.08-1.82,4.59-2.73,7.54-2.73c2.95,0,5.44,0.91,7.48,2.73c2.04,1.82,3.06,3.99,3.06,6.5c0,2.43-1.02,4.59-3.06,6.5
		C527.81,120.85,525.31,121.81,522.37,121.81z M522.37,195.65c-2.95,0-5.35-0.65-7.21-1.95c-1.86-1.3-2.79-2.73-2.79-4.29v-49.53
		c0-1.82,0.93-3.29,2.79-4.42c1.86-1.13,4.27-1.69,7.21-1.69c2.77,0,5.16,0.56,7.15,1.69c1.99,1.13,2.99,2.6,2.99,4.42v49.53
		c0,1.56-1,2.99-2.99,4.29C527.52,195,525.14,195.65,522.37,195.65z"/>
	<path class="st4" d="M553.96,195.65c-2.86,0-5.22-0.65-7.08-1.95c-1.86-1.3-2.79-2.73-2.79-4.29v-49.53c0-1.82,0.93-3.29,2.79-4.42
		c1.86-1.13,4.23-1.69,7.08-1.69c2.51,0,4.64,0.56,6.37,1.69c1.73,1.13,2.6,2.6,2.6,4.42v4.81c0.87-1.91,2.1-3.75,3.7-5.52
		c1.6-1.78,3.42-3.25,5.46-4.42c2.04-1.17,4.14-1.76,6.3-1.76h3.77c1.91,0,3.58,0.87,5,2.6c1.43,1.73,2.15,3.77,2.15,6.11
		c0,2.43-0.71,4.51-2.15,6.24c-1.43,1.73-3.1,2.6-5,2.6h-3.77c-2.34,0-4.59,0.8-6.76,2.4c-2.17,1.6-3.94,3.83-5.33,6.7
		c-1.39,2.86-2.08,6.28-2.08,10.27v19.5c0,1.56-1,2.99-2.99,4.29C559.24,195,556.82,195.65,553.96,195.65z"/>
	<path class="st4" d="M624.29,196.95c-5.37,0-10.31-1.28-14.82-3.83c-4.51-2.56-8.1-5.92-10.79-10.07
		c-2.69-4.16-4.03-8.62-4.03-13.39v-29.64c0-1.56,1-2.99,2.99-4.29c1.99-1.3,4.38-1.95,7.15-1.95c2.69,0,5.03,0.65,7.02,1.95
		c1.99,1.3,2.99,2.73,2.99,4.29v29.64c0,1.65,0.43,3.21,1.3,4.68c0.87,1.47,2.02,2.69,3.45,3.64c1.43,0.96,3.01,1.43,4.74,1.43
		c1.73,0,3.31-0.48,4.75-1.43c1.43-0.95,2.56-2.17,3.38-3.64c0.82-1.47,1.24-3.03,1.24-4.68v-29.77c0-1.65,1.02-3.08,3.05-4.29
		c2.04-1.21,4.4-1.82,7.08-1.82c2.95,0,5.35,0.61,7.22,1.82c1.86,1.21,2.79,2.64,2.79,4.29v29.77c0,4.85-1.34,9.36-4.03,13.52
		c-2.69,4.16-6.26,7.5-10.72,10.01C634.58,195.69,629.66,196.95,624.29,196.95z"/>
	<path class="st4" d="M686.43,196.95c-4.51,0-8.64-0.56-12.41-1.69c-3.77-1.13-6.76-2.6-8.97-4.42s-3.31-3.77-3.31-5.85
		c0-1.04,0.28-2.25,0.85-3.64c0.56-1.39,1.34-2.6,2.34-3.64c1-1.04,2.15-1.56,3.44-1.56c1.39,0,2.77,0.5,4.16,1.5
		c1.39,1,3.1,1.97,5.13,2.92c2.04,0.95,4.79,1.43,8.26,1.43c3.46,0,5.68-0.5,6.63-1.5c0.95-1,1.43-1.93,1.43-2.79
		c0-1.47-0.74-2.62-2.21-3.44c-1.47-0.82-3.36-1.52-5.65-2.08c-2.3-0.56-4.75-1.21-7.35-1.95c-2.6-0.74-5.05-1.75-7.34-3.06
		c-2.3-1.3-4.18-3.08-5.66-5.33c-1.47-2.25-2.21-5.2-2.21-8.84c0-3.21,0.76-6.35,2.28-9.42c1.52-3.08,4.05-5.61,7.6-7.6
		c3.55-1.99,8.41-2.99,14.56-2.99c3.81,0,7.39,0.39,10.72,1.17c3.34,0.78,6.07,1.89,8.19,3.32c2.12,1.43,3.19,3.05,3.19,4.88
		c0,0.87-0.28,2.06-0.84,3.57c-0.57,1.52-1.39,2.88-2.47,4.1c-1.08,1.21-2.41,1.82-3.96,1.82c-1.13,0-2.38-0.32-3.77-0.98
		c-1.39-0.65-2.95-1.3-4.68-1.95c-1.73-0.65-3.77-0.98-6.11-0.98c-1.73,0-3.14,0.22-4.22,0.65c-1.08,0.43-1.89,0.95-2.41,1.56
		c-0.52,0.61-0.78,1.26-0.78,1.95c0,1.21,0.74,2.15,2.21,2.79c1.47,0.65,3.38,1.26,5.72,1.82c2.34,0.56,4.81,1.21,7.41,1.95
		c2.6,0.74,5.07,1.82,7.41,3.25c2.34,1.43,4.25,3.34,5.72,5.72c1.47,2.38,2.21,5.48,2.21,9.29c0,6.07-2.14,10.92-6.43,14.56
		C700.79,195.13,694.57,196.95,686.43,196.95z"/>
</g>
<g>
	<g>
	</g>
</g>
<g>
	<g>
	</g>
</g>
<g>
	<g>
	</g>
</g>
<g>
	<g>
	</g>
</g>
</svg>
