<svg id="flat" height="512" viewBox="0 0 512 512" width="512" xmlns="http://www.w3.org/2000/svg"><path d="m368 320h64v-48a104 104 0 0 0 -104-104h-144a104 104 0 0 0 -104 104v48h64v168h224z" fill="#02c26a"/><g fill="#ffd9c7"><path d="m296 152v32a40 40 0 0 1 -80 0v-32z"/><path d="m312 368-10.29 24-6.85 16-6.86 16h-123.86a84.139 84.139 0 0 1 -84.14-84.14014v-19.85986h72v32h56l48-32 8 8-8 24h48z"/><path d="m368 472h24a40 40 0 0 0 40-40v-112h-64z"/></g><path d="m301.71 392-6.85 16h-22.86a8 8 0 0 1 -8-8 8 8 0 0 1 8-8z" fill="#ffceb6"/><path d="m312 368-6.86 16h-33.14a8 8 0 0 1 -8-8 8 8 0 0 1 8-8z" fill="#ffceb6"/><path d="m152 248h16v104h-16z" fill="#00b55b"/><path d="m352 248h16v240h-16z" fill="#00b55b"/><path d="m392.41235 447.9965c-13.425.2273-24.41235-11.11518-24.41235-24.54211v-7.45439a8 8 0 0 1 8-8 8 8 0 0 1 8 8v7.71741a8.18909 8.18909 0 0 0 7.452 8.26418 8.00868 8.00868 0 0 0 8.548-7.98159v-8a8 8 0 0 1 8-8 8 8 0 0 1 8 8v8a24.02805 24.02805 0 0 1 -23.58765 23.9965z" fill="#ffceb6"/><path d="m344 128h48v16h-48z" fill="#ffc431"/><path d="m352.333 152.727h16v48h-16z" fill="#ffc431" transform="matrix(.364 -.932 .932 .364 64.676 448.13)"/><path d="m330.38 187.878h16.001v48h-16.001z" fill="#ffc431" transform="matrix(.677 -.736 .736 .677 -46.711 317.225)"/><path d="m296 152v32a39.77321 39.77321 0 0 1 -8.77 24.98l-31.23-24.98v-32z" fill="#ffceb6"/><path d="m312 72.00006v56a55.99994 55.99994 0 0 1 -55.99994 55.99994h-.00012a55.99994 55.99994 0 0 1 -55.99994-55.99994v-64.00006l24-24h64z" fill="#ffd9c7"/><circle cx="248" cy="112" fill="#a36522" r="8"/><circle cx="288" cy="112" fill="#a36522" r="8"/><path d="m280 56 32 16v-12a36 36 0 0 0 -36-36h-36v32z" fill="#854f15"/><path d="m200 64h13.37258a25.65685 25.65685 0 0 1 18.14214 7.51472 28.97053 28.97053 0 0 0 20.48528 8.48528 28 28 0 0 0 28-28 28 28 0 0 0 -28-28h-20a32 32 0 0 0 -32 32z" fill="#b1712c"/></svg>