<svg id="flat" height="512" viewBox="0 0 512 512" width="512" xmlns="http://www.w3.org/2000/svg"><path d="m344 232a56 56 0 0 1 56 56v200h-336v-200a56 56 0 0 1 56-56z" fill="#02c26a"/><path d="m240 272h64v152h-64z" fill="#f78e00"/><path d="m288 192a32 32 0 0 1 32 32v24.00012a87.99991 87.99991 0 0 1 -87.99991 87.99988h-.00018a87.99991 87.99991 0 0 1 -87.99991-87.99991v-24.00009a32 32 0 0 1 32-32z" fill="#ffa100"/><path d="m288 160v56a56 56 0 1 1 -112 0v-64l24-24h64z" fill="#ffceb6"/><path d="m224 112h28a36 36 0 0 1 36 36v12l-32-16h-32z" fill="#91591c"/><circle cx="216" cy="192" fill="#91591c" r="8"/><circle cx="248" cy="192" fill="#91591c" r="8"/><path d="m176 152h13.37258a25.65685 25.65685 0 0 1 18.14214 7.51472 28.97053 28.97053 0 0 0 20.48528 8.48528 28 28 0 0 0 28-28 28 28 0 0 0 -28-28h-20a32 32 0 0 0 -32 32z" fill="#b1712c"/><path d="m288 180.68v22.64l-26.34 26.34-11.32-11.32z" fill="#00a64f"/><path d="m213.66 218.34-11.32 11.32-26.34-26.34v-22.64z" fill="#00a64f"/><g fill="#ffa100"><path d="m248 448a8 8 0 0 1 -8-8v-16h16v16a8 8 0 0 1 -8 8z"/><path d="m272 448a8 8 0 0 1 -8-8v-16h16v16a8 8 0 0 1 -8 8z"/><path d="m296 448a8 8 0 0 1 -8-8v-16h16v16a8 8 0 0 1 -8 8z"/></g><path d="m120 376h16v112h-16z" fill="#00b55b"/><path d="m328 376h16v112h-16z" fill="#00b55b"/><path d="m432 196.26025v-140.26025a32 32 0 0 0 -32-32 32 32 0 0 0 -32 32v140.24121a48.01067 48.01067 0 1 0 64 .019z" fill="#d1e4ff"/><path d="m185.34375 92.4375-8-12a22.42146 22.42146 0 0 1 6.21873-31.09375 6.423 6.423 0 0 0 1.78127-8.90625l-8-12 13.3125-8.875 8 12a22.42142 22.42142 0 0 1 -6.21877 31.09375 6.423 6.423 0 0 0 -1.78123 8.90625l8 12z" fill="#ffc431"/><path d="m225.34375 92.4375-8-12a22.42147 22.42147 0 0 1 6.21872-31.09375 6.423 6.423 0 0 0 1.78128-8.90625l-8-12 13.3125-8.875 8 12a22.42144 22.42144 0 0 1 -6.21875 31.09375 6.423 6.423 0 0 0 -1.78125 8.90625l8 12z" fill="#ffc431"/><path d="m265.34375 92.4375-8-12a22.42144 22.42144 0 0 1 6.21875-31.09375 6.423 6.423 0 0 0 1.78125-8.90625l-8-12 13.3125-8.875 8 12a22.42144 22.42144 0 0 1 -6.21875 31.09375 6.423 6.423 0 0 0 -1.78125 8.90625l8 12z" fill="#ffc431"/><path d="m264 216v45.96a56.01583 56.01583 0 0 1 -64 0v-45.96z" fill="#02c26a"/><circle cx="400" cy="232" fill="#ef5e3b" r="16"/><path d="m392 80h16v152h-16z" fill="#ef5e3b"/><path d="m400 48a8 8 0 0 1 8 8v24a0 0 0 0 1 0 0h-16a0 0 0 0 1 0 0v-24a8 8 0 0 1 8-8z" fill="#bdd1f2"/></svg>