<svg height="512" viewBox="0 0 512 512" width="512" xmlns="http://www.w3.org/2000/svg"><g id="Gloves"><g id="Flat"><path d="m153.634 512-44.093-128.991c-24.776-25.026-49.463-48.409-60.793-83.132l-47.162-144.498c-7.495-22.954 13.255-46.33 37.027-41.254l-8.772-26.876c-7.829-23.285 13.559-46.506 37.035-41.231l-1.332-4.082c-13.22-41.152 48.138-58.673 60.841-19.859l1.326 4.061c16.067-18.086 46.6-11.953 54.234 11.467l18.7 57.3a32.022 32.022 0 0 1 54.234 11.468l37.233 114.077c11.435 34.949 5.209 67.939-.048 102.99l44.093 128.993z" fill="#66bb6a"/><path d="m292.065 323.436c5.257-35.051 11.483-68.041.048-102.99l-37.233-114.077a31.914 31.914 0 0 0 -17.068-19.13 189.383 189.383 0 0 1 2.188 28.761c0 103.83-84.17 188-188 188-.61 0-1.216-.017-1.824-.023 11.882 32.487 35.578 55.006 59.365 79.032l44.093 128.991 182.524-59.571z" fill="#49ad4d"/><path d="m240.48 192.19a7.973 7.973 0 0 1 -10.08-5.12l-40-122.56a7.716 7.716 0 0 1 -.39-2.19l10.64 32.58a31.735 31.735 0 0 1 13.58-8.92l31.37 96.12a7.994 7.994 0 0 1 -5.12 10.09z" fill="#49ad4d"/><path d="m194.48 207.08a7.984 7.984 0 0 1 -10.09-5.12l-56.68-175.82a30.973 30.973 0 0 1 13.24-8.83l58.65 179.69a7.991 7.991 0 0 1 -5.12 10.08z" fill="#49ad4d"/><path d="m116.48 221.98a8.019 8.019 0 0 1 -10.09-5.13l-55.53-170.15a30.56 30.56 0 0 1 16.02-.68l-1.34-4.08a38.26 38.26 0 0 1 -1.48-6.34l57.54 176.29a8 8 0 0 1 -5.12 10.09z" fill="#49ad4d"/><path d="m70.48 236.87a7.973 7.973 0 0 1 -10.08-5.12l-38.1-116.74a30.84 30.84 0 0 1 16.31-.89l-8.77-26.87a30.8 30.8 0 0 1 -1.01-3.76l46.77 143.29a7.994 7.994 0 0 1 -5.12 10.09z" fill="#49ad4d"/><path d="m137.396 464.496 16.238 47.504 182.524-59.571-16.238-47.505z" fill="#66bb6a"/><path d="m480 464h-192v-94.108q-1.442-2.875-2.882-5.727c-14.974-29.702-29.118-57.757-29.118-92.165v-120c-.118-24.731 27.132-39.882 48-27.7v-60.3c-.024-24.818 27.033-39.877 48-27.7v-4.3c.382-42.8 63.779-41.634 64 0v4.3c20.2-11.992 48.239 2.656 48 27.7v28.3c20.2-11.986 48.239 2.656 48 27.705v151.995c0 34.408-14.144 62.463-29.118 92.165q-1.439 2.851-2.882 5.727z" fill="#81c784"/><circle cx="182.207" cy="399.379" fill="#81c784" r="8"/><circle cx="212.627" cy="389.45" fill="#81c784" r="8"/><circle cx="243.048" cy="379.521" fill="#81c784" r="8"/><circle cx="172.278" cy="368.958" fill="#81c784" r="8"/><circle cx="202.699" cy="359.029" fill="#81c784" r="8"/><circle cx="233.119" cy="349.1" fill="#81c784" r="8"/><path d="m263.222 314.829c5.523 16.85 13.579 32.84 21.9 49.336q1.439 2.851 2.882 5.727v94.108h191.996v-94.108q1.442-2.875 2.882-5.727c14.974-29.702 29.118-57.757 29.118-92.165v-142.31c-28.5 109.654-130.563 189.329-248.778 185.139z" fill="#66bb6a"/><g fill="#49ad4d"><path d="m288 448h192v64h-192z"/><path d="m304 124.29v83.71a8 8 0 0 1 -8 8 8 8 0 0 1 -8-8v-88a31.192 31.192 0 0 1 16 4.29z"/><path d="m352 36.29v171.71a8 8 0 0 1 -8 8 8 8 0 0 1 -8-8v-176.01a31.354 31.354 0 0 1 16 4.3z"/><path d="m432 32.05v175.95a8 8 0 0 1 -8 8 8 8 0 0 1 -8-8v-171.71a30.266 30.266 0 0 1 16-4.24z"/><path d="m480 88.05v119.95a8 8 0 0 1 -8 8 8 8 0 0 1 -8-8v-115.71a30.358 30.358 0 0 1 16-4.24z"/><circle cx="416" cy="408" r="8"/><circle cx="384" cy="408" r="8"/><circle cx="352" cy="408" r="8"/><circle cx="416" cy="376" r="8"/><circle cx="384" cy="376" r="8"/><circle cx="352" cy="376" r="8"/></g><circle cx="308" cy="252" fill="#c8e6c9" r="20"/><circle cx="348" cy="276" fill="#c8e6c9" r="12"/><circle cx="131.48" cy="140.271" fill="#c8e6c9" r="20"/><circle cx="150.486" cy="182.871" fill="#c8e6c9" r="12"/></g></g></svg>