<svg id="flat" height="512" viewBox="0 0 512 512" width="512" xmlns="http://www.w3.org/2000/svg"><path d="m72 120-48 136h144l16-32v-104z" fill="#00b55b"/><path d="m240 80a40 40 0 0 1 40 40v104h-176a32 32 0 0 1 -32-32v-72a40 40 0 0 1 40-40z" fill="#02c26a"/><circle cx="368" cy="224" fill="#ffc431" r="120"/><path d="m96 448 48.90755-48.90755a51.52886 51.52886 0 0 0 15.09245-36.4364 51.52941 51.52941 0 0 0 -7.26508-26.38089l-.00049.00029 57.06013 21.39755a16 16 0 0 1 8.94788 8.36042l37.25756 81.96658h48l-34.4682-103.4046a56 56 0 0 0 -19.52627-27.09125l-82.00553-61.50415h-144v22.86292a80 80 0 0 0 23.43146 56.56854l40.56854 40.56854-40 72z" fill="#718799"/><path d="m198.909 137.818-22.909-9.818h-24l-8 32 33.548 13.419z" fill="#ffceb6"/><path d="m176 184h-48a16.01833 16.01833 0 0 1 -16-16v-48h16v48h43.4707l20.57813-34.29785a8.00315 8.00315 0 0 1 10.01172-3.23731l21.93945 9.40332v-19.86816h16v32a8.00014 8.00014 0 0 1 -11.15137 7.35352l-26.67187-11.43164-19.31641 32.19433a8.00153 8.00153 0 0 1 -6.86035 3.88379z" fill="#00b55b"/><path d="m184 40 32 32-17.37259 17.37259a22.62738 22.62738 0 0 1 -16 6.62741 22.62739 22.62739 0 0 1 -22.62741-22.62739 22.6274 22.6274 0 0 1 6.62741-16z" fill="#ffceb6"/><path d="m184 40 10.34315-10.34315a19.31369 19.31369 0 0 1 13.65685-5.65685 19.31369 19.31369 0 0 1 13.65684 5.65685l18.34316 18.34315-24 24z" fill="#b1712c"/><path d="m176 176h32l16 16-8 32h-40z" fill="#ffceb6"/><rect fill="#62798c" height="53.015" rx="8" transform="matrix(.768 -.64 .64 .768 -170.784 161.012)" width="15.999" x="128.97" y="289.856"/><path d="m48 448h48a40 40 0 0 1 40 40 0 0 0 0 1 0 0h-88a0 0 0 0 1 0 0v-40a0 0 0 0 1 0 0z" fill="#e0edff"/><path d="m256 448h48a40 40 0 0 1 40 40 0 0 0 0 1 0 0h-88a0 0 0 0 1 0 0v-40a0 0 0 0 1 0 0z" fill="#e0edff"/><path d="m409.184 229.869-33.184-33.183v-60.686h-16v60.687l-33.184 33.182 11.315 11.315 29.869-29.87 29.869 29.87z" fill="#ffa100"/><path d="m306 280a18 18 0 0 0 10.8-3.6l20.8-15.6a16 16 0 0 0 6.4-12.8v-55.02945a16.97054 16.97054 0 0 0 -16.97055-16.97055 16.97054 16.97054 0 0 0 -12 4.97056 92.28418 92.28418 0 0 0 -27.02945 65.2548v15.77464a18 18 0 0 0 18 18z" fill="#ef5e3b"/><path d="m430 280a18 18 0 0 1 -10.8-3.6l-20.8-15.6a16 16 0 0 1 -6.4-12.8v-55.02945a16.97054 16.97054 0 0 1 16.97055-16.97055 16.97054 16.97054 0 0 1 12 4.97056 92.28418 92.28418 0 0 1 27.02945 65.2548v15.77464a18 18 0 0 1 -18 18z" fill="#ef5e3b"/><path d="m432 128-24 24 16 16-8 32 40-32-8-16 24-24z" fill="#ffe28f"/></svg>