<svg id="flat" height="512" viewBox="0 0 512 512" width="512" xmlns="http://www.w3.org/2000/svg"><path d="m103.19629 496a87.19649 87.19649 0 0 1 -61.65723-148.85352l38.46094-38.45996 11.31348 11.31348-38.46 38.46094a71.19543 71.19543 0 1 0 100.68558 100.68554l38.46094-38.45996 11.31348 11.31348-38.46 38.46094a86.6284 86.6284 0 0 1 -61.65719 25.53906z" fill="#67eba0"/><path d="m432 203.31348-11.31348-11.31348 38.46-38.46094a71.19543 71.19543 0 1 0 -100.68558-100.68554l-38.46094 38.45996-11.31348-11.31348 38.46-38.46094a87.19649 87.19649 0 0 1 123.31442 123.31446z" fill="#67eba0"/><path d="m448 208-18.34009 18.33984-11.31982 11.32007-210.34009 210.34009-144-144 88-88v-9.37012a54.62742 54.62742 0 0 1 54.62988-54.62988h9.37012l88-88z" fill="#02c26a"/><g fill="#00b55b"><path d="m173.65723 253.65723-11.31446-11.31446 13.65723-13.65625v-3.71582a48.96928 48.96928 0 0 1 48.9707-48.9707h3.71582l13.65625-13.65723 11.31446 11.31446-16 16a8.00235 8.00235 0 0 1 -5.65723 2.34277h-7.0293a32.97185 32.97185 0 0 0 -32.9707 32.9707v7.0293a8.00235 8.00235 0 0 1 -2.34277 5.65723z"/><path d="m429.66 226.34-11.32 11.32-34.22-34.22-178.34 186.1-11.56-11.08 178.58-186.34-12.68-12.68-178.34 186.1-11.56-11.08 178.58-186.34-12.68-12.68-178.34 186.1-11.56-11.08 178.58-186.34-10.46-10.46 11.32-11.32z"/></g></svg>