<svg width="512" height="512" xmlns="http://www.w3.org/2000/svg">

 <g>
  <title>background</title>
  <rect fill="none" id="canvas_background" height="402" width="582" y="-1" x="-1"/>
 </g>
 <g>
  <title>Layer 1</title>
  <rect id="svg_1" fill="#F5D0C7" height="141.867" width="93.952" y="250.667" x="196.267"/>
  <path id="svg_4" fill="#F5D0C7" d="m196.267,281.173c-21.769,-19.413 -34.193,-47.206 -34.134,-76.373l0,-17.067l8.533,0c37.7,0 68.267,-30.566 68.267,-68.267l0,-8.533l145.067,0l0,93.867c0.06,53.222 -40.738,97.587 -93.781,101.973c-2.859,0.316 -5.743,0.461 -8.619,0.427l-17.067,0c-25.19,0.068 -49.51,-9.207 -68.266,-26.027z"/>
  <path id="svg_5" fill="#07B671" d="m384,67.755l0,43.179l-102.4,0l21.077,-15.36l72.789,-52.907l2.304,-1.109c4.131,8.115 6.264,17.092 6.23,26.197z"/>
  <path id="svg_6" fill="#07B671" d="m377.771,41.557l-2.304,1.109l-72.789,52.907c0,0 -31.573,-11.435 -64.256,-23.296l0.256,-0.683l44.203,-32.341l41.899,-30.72c22.518,-0.017 43.083,12.8 52.991,33.024z"/>
  <path id="svg_7" fill="#07B671" d="m290.219,358.4l16.981,0c37.7,0 68.267,30.566 68.267,68.267l0,76.8l-238.934,0l0,-76.8c-0.009,-34.441 25.643,-63.497 59.819,-67.755c2.799,-0.341 5.623,-0.512 8.448,-0.512l85.419,0z"/>
  <path id="svg_8" fill="#07B671" d="m324.779,8.533l-41.899,30.72l-64.427,-30.549c1.101,-0.145 2.219,-0.196 3.328,-0.171l102.998,0z"/>
  <path id="svg_9" fill="#07B671" d="m302.677,95.573l-21.077,15.36l-119.467,0l0.427,-43.179c-0.043,-7.27 1.323,-14.49 4.011,-21.248c1.451,0.427 37.291,13.312 71.851,25.771c32.682,11.862 64.255,23.296 64.255,23.296z"/>
  <path id="svg_10" fill="#07B671" d="m282.88,39.253l-44.203,32.341l-0.256,0.683c-34.56,-12.459 -70.4,-25.344 -71.851,-25.771c8.32,-21.734 28.646,-36.548 51.883,-37.803l64.427,30.55z"/>
  <path id="svg_11" fill="#EC9821" d="m238.933,110.933l0,8.533c0,37.7 -30.566,68.267 -68.267,68.267l-8.533,0l0,-76.8l76.8,0z"/>
  <g id="svg_23"/>
  <g id="svg_24"/>
  <g id="svg_25"/>
  <g id="svg_26"/>
  <g id="svg_27"/>
  <g id="svg_28"/>
  <g id="svg_29"/>
  <g id="svg_30"/>
  <g id="svg_31"/>
  <g id="svg_32"/>
  <g id="svg_33"/>
  <g id="svg_34"/>
  <g id="svg_35"/>
  <g id="svg_36"/>
  <g id="svg_37"/>
 </g>
</svg>